<svg version="1.1" xmlns="http://www.w3.org/2000/svg" style="display: block;" viewBox="0 0 1268 1160" width="317" height="290" preserveAspectRatio="none">
<path transform="translate(0,0)" fill="rgb(254,254,254)" d="M 555.392 113.654 C 558.684 114.195 561.351 117.365 562.897 120.173 C 573.798 139.977 584.055 160.201 594.452 180.283 C 611.754 213.63 629.232 246.885 646.884 280.048 L 904.37 766.868 L 973.152 897.014 C 977.731 905.548 1011.27 964.32 1008.78 969.467 C 999.802 973.066 951.025 971.306 939.823 969.655 C 924.883 949.789 907.855 912.944 895.458 889.558 L 817.712 743.11 L 676.256 475.563 C 636.739 400.688 598.957 327.214 557.745 252.926 C 549.493 272.359 539.597 290.99 530.067 309.84 L 488.637 392.21 L 353.459 666.701 L 232.336 913.045 L 198.645 982.721 C 193.784 992.749 186.173 1009.74 180.341 1018.7 L 292.943 1019.95 C 323.053 1019.99 354.585 1019.14 384.412 1019.66 C 388.219 1010.27 394.305 999.142 398.77 989.738 C 409.42 967.072 420.185 944.46 431.063 921.903 L 540.79 691.625 C 557.687 656.026 577.453 618.042 592.56 581.9 C 580.845 558.101 571.18 540.183 558.262 516.879 C 553.297 530.777 545.682 545.743 539.255 559.195 L 503.813 632.243 C 473.334 695.683 443.742 760.414 412.909 823.507 L 373.257 908.181 C 368.348 918.726 347.477 968.21 338.548 969.792 C 328.886 971.503 281.942 972.635 273.817 968.894 C 272.456 964.205 304.696 899.348 309.166 889.855 L 391.127 718.018 L 514.135 460.141 C 520.538 446.865 546.911 382.175 556.234 378.21 C 560.25 380.147 566.341 389.856 568.578 394.113 C 592.523 439.669 616.16 485.472 639.974 531.09 L 755.372 750.246 L 826.35 886.126 L 850.849 932.015 C 854.692 939.088 870.273 963.614 867.681 970.457 C 863.704 972.05 837.617 970.831 830.91 971.439 C 823.081 972.15 809.732 971.781 801.763 970.968 C 797.495 970.433 793.985 964.054 791.935 960.714 C 778.562 938.931 768.708 914.445 756.222 892.309 C 712.931 815.553 675.618 729.823 629.853 655.159 C 618.719 683.215 597.503 724.715 583.843 752.962 L 508.954 909.655 L 454.495 1025.28 C 445.979 1043.49 436.734 1064.83 426.646 1082.04 C 423.934 1086.66 373.404 1084.42 366.483 1084.33 C 340.057 1084.07 313.629 1084.03 287.202 1084.21 L 188.06 1084.72 C 168.776 1084.8 150.436 1085.13 130.899 1083.92 C 109.429 1084.29 91.7249 1061.09 99.2939 1040.29 C 110.815 1008.62 129.515 975.073 144.314 944.605 L 264.661 699.916 C 339.776 545.599 415.894 391.772 493.009 238.444 C 501.71 221.265 546.694 122.752 555.392 113.654 z"/>
<path transform="translate(0,0)" fill="rgb(254,254,254)" d="M 614.344 95.2385 C 628.684 94.9409 660.427 93.1549 673.23 95.5035 C 676.845 96.1667 680.226 97.6021 682.937 100.125 C 695.055 111.399 730.519 183.956 741.246 203.751 L 846.088 396.95 L 1059 791.435 L 1124.1 913.007 C 1142.17 946.395 1160.74 979.659 1178.08 1013.42 C 1183.07 1024.5 1191.3 1038.14 1191.8 1050.38 C 1192.42 1065.56 1178.96 1080.04 1164.19 1081.92 C 1134.78 1085.67 1104.4 1083.38 1074.69 1083.57 L 871.408 1084.15 C 845.863 1084.21 816.915 1085.55 791.694 1084.29 C 789.423 1066.78 790.619 1037.21 791.209 1019.44 C 801.655 1018.6 818.221 1019.09 828.875 1019.19 L 889.403 1019.66 C 961.732 1020.5 1034.07 1020.22 1106.39 1018.83 C 1090.84 986.408 1071.45 952.975 1054.23 921.127 L 962.201 750.968 L 720.996 303.269 L 649.301 170.45 L 624.347 124.393 C 620.445 117.243 615.113 109.92 612.726 102.153 C 611.632 98.5934 612.6 98.1237 614.344 95.2385 z"/>
</svg>