<svg version="1.1" xmlns="http://www.w3.org/2000/svg" style="display: block;" viewBox="0 0 1236 1176" width="309" height="294" preserveAspectRatio="none">
<defs>
	<linearGradient id="Gradient1" gradientUnits="userSpaceOnUse" x1="527.901" y1="102.562" x2="525.234" y2="111.593">
		<stop class="stop0" offset="0" stop-opacity="0.898039" stop-color="rgb(0,0,0)"/>
		<stop class="stop1" offset="1" stop-opacity="0.933333" stop-color="rgb(0,0,0)"/>
	</linearGradient>
</defs>
<path transform="translate(0,0)" fill="rgb(0,0,0)" d="M 511.772 117.354 C 517.554 114.535 517.682 108.953 523.413 110.105 C 529.791 115.236 534.407 120.253 536.051 128.862 L 537.398 130.232 L 538.83 129.879 C 539.53 125.534 535.132 122.737 539.263 119.951 C 555.552 152.804 575.577 186.853 590.547 219.827 C 591.099 233.095 603.009 244 602.497 247.711 L 599.689 246.709 C 599.593 252.927 635.438 314.492 642.711 317.875 C 649.302 324.311 681.379 390.222 688.802 404.406 L 799.104 613.824 L 872.846 752.745 L 891.702 788.611 C 894.438 793.736 900.701 804.724 902.538 809.758 C 903.11 814.034 903.883 825.121 906.082 827.331 L 907.899 825.341 C 909.73 829.088 908.694 832.802 909.536 834.842 C 911.293 839.094 920.079 855.806 922.613 858.316 L 923.48 855.004 C 925.836 859.577 923.394 861.559 926.387 865.635 L 927.683 863.588 C 933.948 870.327 931.679 875.448 933.333 878.639 C 940.003 891.511 947.863 907.221 955.375 919.531 C 958.876 925.269 962.014 926.509 965.664 933.312 L 967.876 934.163 C 970.206 938.861 972.032 949.065 968.383 953.194 C 957.614 957.84 917.553 955.533 905.608 951.54 C 900.11 944.565 888.358 921.179 883.979 912.629 C 875.634 896.162 867.022 879.831 858.147 863.643 C 834.242 819.655 810.737 775.452 787.632 731.038 L 620.671 416.97 C 590.384 359.952 561.702 301.764 530.498 245.198 C 528.809 242.136 527.686 241.103 524.52 240.014 C 520.121 242.959 474.435 342.176 468.192 354.749 L 171.805 952.435 C 163.583 968.912 157.584 986.346 148.983 1002.75 C 156.969 1003.98 165.024 1004.71 173.1 1004.93 C 227.02 1006.82 282.973 1004.41 337.048 1004.79 C 349.078 1004.87 354.251 1001 359.242 989.988 C 365.398 976.404 371.204 962.657 377.675 949.125 L 467.604 758.178 L 527.037 636.474 C 535.418 619.352 550.69 588.44 556.658 571.182 C 560.848 559.064 533.076 513.901 525.633 502.453 C 503.126 547.979 481.712 596.551 460.063 642.704 L 353.413 864.956 C 343.537 885.145 321.746 939.099 310.41 953.419 C 298.296 957.281 260.678 957.124 249.159 953.138 C 237.849 949.224 268.068 892.947 270.976 886.64 L 317.892 787.351 L 415.122 582.978 L 477.826 450.813 L 500.231 403.171 C 504.403 394.296 509.445 382.567 514.276 374.275 C 517.967 371.792 518.606 370.936 521.499 367.538 C 525.59 375.987 532.862 384.458 537.626 392.856 C 541.608 399.875 547.754 405.131 552.129 412.411 C 552.721 412.561 553.816 412.914 554.349 412.88 C 556.762 417.11 575.086 451.85 575.543 455.025 C 574.933 459.721 595.708 508.374 599.868 513.692 C 600.351 514.316 600.866 514.914 601.412 515.484 C 601.351 512.938 599.749 507.332 600.111 506.52 C 604.58 512.165 605.872 517.982 607.416 524.913 L 605.908 520.822 C 608.081 528.653 611.977 539.961 618.214 545.441 C 618.784 544.625 619.231 543.964 619.746 543.113 C 624.126 548.228 624.86 557.056 631.521 560.281 C 647.672 588.687 662.921 619.522 677.493 648.828 C 706.878 707.925 742.239 766.395 770.418 825.89 C 770.56 831.663 771.667 831.885 772.913 837.34 C 777.674 858.196 797.925 884.84 805.16 903.812 C 806.521 903.543 806.47 902.966 807.568 901.426 C 810.69 905.941 805.24 912.555 814.157 914.596 C 815.784 914.969 817.207 916.328 818.513 917.421 C 824.019 923.711 832.008 943.748 831.125 952.156 C 824.379 959.403 776.703 954.993 766.139 952.966 C 758.725 943.788 742.636 910.455 735.886 898.111 C 701.438 834.961 667.641 771.459 634.501 707.613 C 625.326 689.973 609.465 654.472 597.235 639.778 C 592.159 654.71 578.205 681.372 570.911 696.914 C 550.698 740.221 530.078 783.337 509.055 826.256 L 436.083 979.727 C 422.114 1009.34 409.142 1038.83 393.844 1067.82 C 379.499 1070.97 359.053 1069.39 343.854 1069.23 L 283.27 1069.1 L 157.188 1068.62 C 138.028 1068.52 119.395 1069.55 100.231 1068.5 C 85.8278 1067.72 78.2142 1060.67 68.8725 1049.96 C 63.9732 1026.83 70.8013 1014.79 80.0441 994.948 C 89.0454 975.628 98.7697 956.695 107.916 937.487 L 193.666 760.395 C 198.919 749.729 205.092 739.339 210.387 728.462 L 452.604 238.627 C 472.736 198.306 491.14 158.062 511.772 117.354 z"/>
<path transform="translate(0,0)" fill="rgb(0,0,0)" d="M 762.301 1005.81 C 793.506 1001.13 829.192 1004.94 860.73 1004.99 C 906.344 1004.99 951.957 1004.92 997.57 1005.22 C 1007 1005.28 1067.34 1007.15 1071.42 1001.5 C 1070.73 986.326 1034.11 925.989 1025.3 909.786 L 932.93 739.737 L 677.994 268.362 C 652.944 222.361 626.718 175.656 602.595 129.121 C 597.59 119.466 579.787 92.8472 586.018 83.1889 C 593.574 78.3264 636.566 79.6007 646.533 80.6878 C 645.065 84.8181 644.724 83.8351 645.722 87.4839 C 649.067 90.0621 651.355 89.7171 653.771 90.5333 C 653.619 90.4819 659.322 96.7794 660.77 97.9283 C 685.473 144.621 710.994 193.065 736.34 239.344 C 767.648 295.381 798.309 351.777 828.317 408.521 C 843.987 438.397 860.705 467.633 876.186 497.607 C 877.156 499.486 878.825 502.266 879.548 504.123 C 879.521 507.089 879.273 508.167 880.604 510.776 L 877.85 509.554 C 877.685 510.882 925.522 599.454 929.987 608.228 L 932.819 607.978 C 934.519 610.394 934.164 609.277 934.463 612.212 L 931.279 610.958 C 932.967 616.227 957.638 661.69 961.298 666.412 L 962.103 665.819 L 962.083 662.318 C 966.321 667.151 960.337 670.733 970.274 681.613 L 971.685 679.31 C 971.877 680.794 973.042 689.294 973.338 689.691 C 977.55 695.332 998.77 738.972 1001.57 740.398 L 1003.46 737.792 C 1005.45 740.502 1005.58 741.465 1006.42 744.656 L 1006.58 744.695 L 1004.44 745.617 C 1006.55 751.708 1014.59 765.907 1017.97 772.222 C 1026.41 787.796 1034.57 803.521 1042.44 819.392 C 1041.13 815.078 1039.74 810.79 1038.27 806.531 L 1038.91 805.696 L 1039.49 806.206 C 1041.24 807.73 1041.62 808.251 1043.73 809.021 C 1050.38 817.061 1067.62 854.141 1073.7 865.48 L 1121.18 953.525 C 1131.16 971.833 1142.15 990.926 1150.74 1009.97 C 1161.38 1033.59 1159.65 1065.2 1127.53 1067.86 C 1114.39 1068.94 1101.43 1068.05 1088.37 1068.38 C 1042.42 1069.15 996.472 1069.28 950.526 1068.76 L 842.664 1068.52 C 815.055 1068.57 791.155 1069.45 763.469 1067.26 C 757.093 1048.34 755.378 1024.79 762.301 1005.81 z"/>
<path transform="translate(0,0)" fill="rgb(0,0,0)" fill-opacity="0.941176" d="M 879.548 504.123 C 883.348 509.422 891.334 525.834 895.003 532.646 L 933.412 604.369 L 998.891 725.194 C 1013.38 751.747 1030.57 781.903 1043.73 809.021 C 1041.62 808.251 1041.24 807.73 1039.49 806.206 L 1038.91 805.696 L 1038.27 806.531 C 1039.74 810.79 1041.13 815.078 1042.44 819.392 C 1034.57 803.521 1026.41 787.796 1017.97 772.222 C 1014.59 765.907 1006.55 751.708 1004.44 745.617 L 1006.58 744.695 L 1006.42 744.656 C 1005.58 741.465 1005.45 740.502 1003.46 737.792 L 1001.57 740.398 C 998.77 738.972 977.55 695.332 973.338 689.691 C 973.042 689.294 971.877 680.794 971.685 679.31 L 970.274 681.613 C 960.337 670.733 966.321 667.151 962.083 662.318 L 962.103 665.819 L 961.298 666.412 C 957.638 661.69 932.967 616.227 931.279 610.958 L 934.463 612.212 C 934.164 609.277 934.519 610.394 932.819 607.978 L 929.987 608.228 C 925.522 599.454 877.685 510.882 877.85 509.554 L 880.604 510.776 C 879.273 508.167 879.521 507.089 879.548 504.123 z"/>
<path transform="translate(0,0)" fill="rgb(0,0,0)" fill-opacity="0.937255" d="M 902.538 809.758 C 917.432 838.304 932.499 866.759 947.739 895.121 C 951.731 902.593 965.883 927.708 967.876 934.163 L 965.664 933.312 C 962.014 926.509 958.876 925.269 955.375 919.531 C 947.863 907.221 940.003 891.511 933.333 878.639 C 931.679 875.448 933.948 870.327 927.683 863.588 L 926.387 865.635 C 923.394 861.559 925.836 859.577 923.48 855.004 L 922.613 858.316 C 920.079 855.806 911.293 839.094 909.536 834.842 C 908.694 832.802 909.73 829.088 907.899 825.341 L 906.082 827.331 C 903.883 825.121 903.11 814.034 902.538 809.758 z"/>
<path transform="translate(0,0)" fill="rgb(0,0,0)" fill-opacity="0.937255" d="M 770.418 825.89 C 781.176 845.698 791.733 865.614 802.087 885.635 C 807.005 895.041 814.341 908.011 818.513 917.421 C 817.207 916.328 815.784 914.969 814.157 914.596 C 805.24 912.555 810.69 905.941 807.568 901.426 C 806.47 902.966 806.521 903.543 805.16 903.812 C 797.925 884.84 777.674 858.196 772.913 837.34 C 771.667 831.885 770.56 831.663 770.418 825.89 z"/>
<path transform="translate(0,0)" fill="rgb(0,0,0)" fill-opacity="0.937255" d="M 575.543 455.025 C 586.532 473.13 598.108 498.658 608.739 517.755 C 613.515 526.335 628.358 552.369 631.521 560.281 C 624.86 557.056 624.126 548.228 619.746 543.113 C 619.231 543.964 618.784 544.625 618.214 545.441 C 611.977 539.961 608.081 528.653 605.908 520.822 L 607.416 524.913 C 605.872 517.982 604.58 512.165 600.111 506.52 C 599.749 507.332 601.351 512.938 601.412 515.484 C 600.866 514.914 600.351 514.316 599.868 513.692 C 595.708 508.374 574.933 459.721 575.543 455.025 z"/>
<path transform="translate(0,0)" fill="rgb(0,0,0)" fill-opacity="0.941176" d="M 590.547 219.827 C 602.443 240.434 614.112 264.72 625.607 285.711 C 629.557 292.923 639.992 311.135 642.711 317.875 C 635.438 314.492 599.593 252.927 599.689 246.709 L 602.497 247.711 C 603.009 244 591.099 233.095 590.547 219.827 z"/>
<path transform="translate(0,0)" fill="url(#Gradient1)" d="M 511.772 117.354 C 522.58 92.0043 530.504 95.4909 539.263 119.951 C 535.132 122.737 539.53 125.534 538.83 129.879 L 537.398 130.232 L 536.051 128.862 C 534.407 120.253 529.791 115.236 523.413 110.105 C 517.682 108.953 517.554 114.535 511.772 117.354 z"/>
<path transform="translate(0,0)" fill="rgb(0,0,0)" fill-opacity="0.937255" d="M 521.499 367.538 C 528.636 370.179 530.298 378.028 535.438 383.323 C 536.666 382.904 537.728 382.541 538.623 382.236 C 539.935 384.84 554.129 411.527 554.349 412.88 C 553.816 412.914 552.721 412.561 552.129 412.411 C 547.754 405.131 541.608 399.875 537.626 392.856 C 532.862 384.458 525.59 375.987 521.499 367.538 z"/>
<path transform="translate(0,0)" fill="rgb(0,0,0)" fill-opacity="0.909804" d="M 522.559 358.548 C 530.751 366.111 533.504 372.511 538.623 382.236 C 537.728 382.541 536.666 382.904 535.438 383.323 C 530.298 378.028 528.636 370.179 521.499 367.538 C 518.606 370.936 517.967 371.792 514.276 374.275 C 517.188 367.896 518.893 364.581 522.559 358.548 z"/>
<path transform="translate(0,0)" fill="rgb(0,0,0)" fill-opacity="0.941176" d="M 646.533 80.6878 C 653.698 83.3981 658.848 90.6977 660.77 97.9283 C 659.322 96.7794 653.619 90.4819 653.771 90.5333 C 651.355 89.7171 649.067 90.0621 645.722 87.4839 C 644.724 83.8351 645.065 84.8181 646.533 80.6878 z"/>
</svg>